# xmcd
#
# Track frame offsets:
#	150
#	15598
#	28017
#	42415
#	55742
#	68875
#	82509
#	90810
#	101902
#	114477
#
# Disc length: 1662 seconds
# Revision: 0
# Processed by: cddbd v1.5.2PL0 Copyright (c) Steve Scherf et al.
# Submitted via: dBpowerAMP V12.0
#
DISCID=6d067c0a
DTITLE=Ray Charles - Rockin' Chair Blues
DYEAR=1900
DGENRE=R&B
TTITLE0=Kiss-A-Me-Baby
TTITLE1=If I Give You My Love
TTITLE2=Someday
TTITLE3=Alone In The City
TTITLE4=Don t Put All Your Dreams In One Basket
TTITLE5=Lonely Boy
TTITLE6=I'm Sittin' On Top Of the World
TTITLE7=Sentimental Blues
TTITLE8=Rockin' Chair Blues
TTITLE9=Ain t That Fine
EXTD=
EXTT0=
EXTT1=
EXTT2=
EXTT3=
EXTT4=
EXTT5=
EXTT6=
EXTT7=
EXTT8=
EXTT9=
PLAYORDER=
